<?xml version="1.0" encoding="UTF-8"?>
<svg version="1.1" xmlns="http://www.w3.org/2000/svg" width="192" height="256">
<path d="M0 0 C0.63164062 0.45117188 1.26328125 0.90234375 1.9140625 1.3671875 C9.90431599 7.59747326 16.10132307 17.02608598 18 27 C18.20127931 31.00688334 18.14483848 35.0055662 17.94116211 39.01147461 C17.73201735 44.24555425 18.54946372 48.08723818 20.37036133 52.98681641 C21.2149267 55.68719875 21.00408557 57.65270777 20.3125 60.375 C20.12300781 61.18710938 19.93351563 61.99921875 19.73828125 62.8359375 C19 65 19 65 17 68 C17.27332518 71.96321518 19.73446421 74.86822994 22 78 C22.598125 78.515625 23.19625 79.03125 23.8125 79.5625 C25 81 25 81 24.8125 83.625 C24 86 24 86 22 87 C19.91854396 87.09774794 17.83374453 87.12975741 15.75 87.125 C14.63109375 87.12757813 13.5121875 87.13015625 12.359375 87.1328125 C9.15392456 87.00608539 6.14755311 86.6008965 3 86 C4.07686178 94.21107107 7.35720633 99.92863972 13 106 C15.3951239 107.59514288 17.18504833 108.18799471 20 109 C20.99 109.680625 20.99 109.680625 22 110.375 C24.84257691 111.26330528 26.36415312 109.9922486 28.9296875 108.75390625 C32.76113933 107.35867945 37.02471452 107.11737543 41 108 C44 111.17608696 44 111.17608696 44 114 C45.11375 114.185625 45.11375 114.185625 46.25 114.375 C48.80141485 114.95486701 50.7267573 115.73708739 53 117 C53.40774783 124.3394609 52.68380275 131.66557841 47.9375 137.5625 C43.81436485 140.62160027 39.97102348 140.70733931 35 140 C30.21798755 138.59818075 25.61329635 136.68051799 21.00048828 134.80810547 C14.29952296 132.06141298 14.29952296 132.06141298 7.25 130.5 C3.89558082 129.98393551 2.46031155 129.26348663 0 127 C0.33 125.68 0.66 124.36 1 123 C0.443125 122.79375 -0.11375 122.5875 -0.6875 122.375 C-2.94696811 121.03153247 -3.9998656 119.94842298 -5.625 117.9375 C-7.67119397 114.99175287 -7.67119397 114.99175287 -10 114 C-10.22142255 115.95689659 -10.4267568 117.91561952 -10.625 119.875 C-10.79902344 121.51082031 -10.79902344 121.51082031 -10.9765625 123.1796875 C-10.98429687 124.11039063 -10.99203125 125.04109375 -11 126 C-10.34 126.66 -9.68 127.32 -9 128 C-8.86474609 130.1003418 -8.86474609 130.1003418 -9.0234375 132.69921875 C-9.07540283 133.65449463 -9.12736816 134.60977051 -9.1809082 135.59399414 C-9.2449585 136.61485107 -9.30900879 137.63570801 -9.375 138.6875 C-9.48232928 140.78375973 -9.58779568 142.88011567 -9.69140625 144.9765625 C-9.77092529 146.51812012 -9.77092529 146.51812012 -9.85205078 148.09082031 C-10.04658706 151.91605836 -10.2169586 155.73320086 -10.3125 159.5625 C-10.36857422 161.23505859 -10.36857422 161.23505859 -10.42578125 162.94140625 C-9.88278797 166.84199097 -8.44637149 168.94969423 -6 172 C-4.9275 172.66 -3.855 173.32 -2.75 174 C-1.8425 174.66 -0.935 175.32 0 176 C0 177.98 0 179.96 0 182 C-9.9 182 -19.8 182 -30 182 C-30.33 170.12 -30.66 158.24 -31 146 C-35.62 146 -40.24 146 -45 146 C-45.33 157.88 -45.66 169.76 -46 182 C-55.9 182 -65.8 182 -76 182 C-76 176 -76 176 -74.3203125 174.2421875 C-73.59585938 173.79101562 -72.87140625 173.33984375 -72.125 172.875 C-68.98645838 170.8838822 -67.20052174 169.58290427 -66 166 C-65.71882676 162.73729925 -65.71882676 162.73729925 -65.8125 159.125 C-65.82325562 158.13850464 -65.82325562 158.13850464 -65.83422852 157.13208008 C-65.99687706 147.0538941 -66.91532481 137.01593685 -68 127 C-67.34 127 -66.68 127 -66 127 C-67.485 120.565 -67.485 120.565 -69 114 C-71.00753698 115.09040327 -73.00588751 116.19773572 -75 117.3125 C-76.11375 117.92738281 -77.2275 118.54226562 -78.375 119.17578125 C-79.24125 119.77777344 -80.1075 120.37976563 -81 121 C-81 121.99 -81 122.98 -81 124 C-85.455 124.99 -85.455 124.99 -90 126 C-90 125.34 -90 124.68 -90 124 C-96.28824564 125.55149238 -102.18444655 127.31511628 -108.02734375 130.1328125 C-112.35349874 132.03460737 -116.28087466 132.33116669 -121 132 C-124.46342452 130.58314451 -125.72530618 129.44764918 -127.6875 126.25 C-130.07617909 120.3351756 -131.26157211 115.40851675 -131 109 C-125.375 106 -125.375 106 -122 106 C-121.5978125 104.824375 -121.5978125 104.824375 -121.1875 103.625 C-120 101 -120 101 -117 99 C-111.75876083 98.7207155 -107.22935501 99.64231899 -102.6875 102.25 C-100.81168001 103.35317101 -100.81168001 103.35317101 -99 104 C-96.33790071 102.95335182 -96.33790071 102.95335182 -94 101 C-92.9275 100.7525 -91.855 100.505 -90.75 100.25 C-85.69820912 98.56606971 -81.73528382 95.79614385 -78 92 C-76.7265098 89.38517699 -76.7265098 89.38517699 -76 87 C-76.62648437 87.01160156 -77.25296875 87.02320313 -77.8984375 87.03515625 C-78.71570313 87.04417969 -79.53296875 87.05320312 -80.375 87.0625 C-81.18710938 87.07410156 -81.99921875 87.08570313 -82.8359375 87.09765625 C-85 87 -85 87 -87 86 C-87.48815723 81.89947929 -87.30931077 80.40382239 -84.75 77.0625 C-84.29753906 76.57652344 -83.84507813 76.09054688 -83.37890625 75.58984375 C-81.11779343 72.98283831 -79.63554313 70.02878357 -78 67 C-78.804375 66.855625 -79.60875 66.71125 -80.4375 66.5625 C-83 66 -83 66 -84 65 C-83.9666974 63.03514682 -83.93321321 61.07029641 -83.8984375 59.10546875 C-83.90282815 56.81928737 -83.90282815 56.81928737 -85.0625 54.125 C-86.39857019 49.6714327 -86.06481671 45.50939157 -85 41 C-84.505 40.21882813 -84.01 39.43765625 -83.5 38.6328125 C-81.61752908 35.32868385 -81.48547959 32.71588124 -81.1875 28.9375 C-79.86256529 16.74571074 -74.48163005 7.69523598 -65 0 C-45.84681394 -13.54085712 -19.12294593 -14.14671465 0 0 Z " fill="#BC7959" transform="translate(134,74)"/>
<path d="M0 0 C0.66 0 1.32 0 2 0 C3.40234375 1.86328125 3.40234375 1.86328125 4.9375 4.3125 C7.05623514 7.68415055 7.05623514 7.68415055 9.703125 10.62890625 C10.13109375 11.08136719 10.5590625 11.53382813 11 12 C10.8125 14.625 10.8125 14.625 10 17 C7.20518141 18.3974093 4.86675981 18.13211589 1.75 18.125 C0.63109375 18.12757813 -0.4878125 18.13015625 -1.640625 18.1328125 C-4.84607544 18.00608539 -7.85244689 17.6008965 -11 17 C-9.92313822 25.21107107 -6.64279367 30.92863972 -1 37 C1.3951239 38.59514288 3.18504833 39.18799471 6 40 C6.99 40.680625 6.99 40.680625 8 41.375 C10.84257691 42.26330528 12.36415312 40.9922486 14.9296875 39.75390625 C18.76113933 38.35867945 23.02471452 38.11737543 27 39 C30 42.17608696 30 42.17608696 30 45 C31.11375 45.185625 31.11375 45.185625 32.25 45.375 C34.80141485 45.95486701 36.7267573 46.73708739 39 48 C39.40774783 55.3394609 38.68380275 62.66557841 33.9375 68.5625 C29.81436485 71.62160027 25.97102348 71.70733931 21 71 C16.21798755 69.59818075 11.61329635 67.68051799 7.00048828 65.80810547 C0.29952296 63.06141298 0.29952296 63.06141298 -6.75 61.5 C-10.10441918 60.98393551 -11.53968845 60.26348663 -14 58 C-13.67 56.68 -13.34 55.36 -13 54 C-13.556875 53.79375 -14.11375 53.5875 -14.6875 53.375 C-16.94696811 52.03153247 -17.9998656 50.94842298 -19.625 48.9375 C-21.67119397 45.99175287 -21.67119397 45.99175287 -24 45 C-24.22142255 46.95689659 -24.4267568 48.91561952 -24.625 50.875 C-24.79902344 52.51082031 -24.79902344 52.51082031 -24.9765625 54.1796875 C-24.98429687 55.11039063 -24.99203125 56.04109375 -25 57 C-24.34 57.66 -23.68 58.32 -23 59 C-22.86474609 61.1003418 -22.86474609 61.1003418 -23.0234375 63.69921875 C-23.07540283 64.65449463 -23.12736816 65.60977051 -23.1809082 66.59399414 C-23.2449585 67.61485107 -23.30900879 68.63570801 -23.375 69.6875 C-23.48232928 71.78375973 -23.58779568 73.88011567 -23.69140625 75.9765625 C-23.74441895 77.00426758 -23.79743164 78.03197266 -23.85205078 79.09082031 C-24.04658706 82.91605836 -24.2169586 86.73320086 -24.3125 90.5625 C-24.34988281 91.67753906 -24.38726562 92.79257813 -24.42578125 93.94140625 C-23.88278797 97.84199097 -22.44637149 99.94969423 -20 103 C-18.9275 103.66 -17.855 104.32 -16.75 105 C-15.8425 105.66 -14.935 106.32 -14 107 C-14 108.98 -14 110.96 -14 113 C-23.9 113 -33.8 113 -44 113 C-44.33 101.12 -44.66 89.24 -45 77 C-49.62 77 -54.24 77 -59 77 C-59.33 88.88 -59.66 100.76 -60 113 C-69.9 113 -79.8 113 -90 113 C-90 107 -90 107 -88.3203125 105.2421875 C-87.59585938 104.79101562 -86.87140625 104.33984375 -86.125 103.875 C-82.98645838 101.8838822 -81.20052174 100.58290427 -80 97 C-79.71882676 93.73729925 -79.71882676 93.73729925 -79.8125 90.125 C-79.82325562 89.13850464 -79.82325562 89.13850464 -79.83422852 88.13208008 C-79.99687706 78.0538941 -80.91532481 68.01593685 -82 58 C-81.34 58 -80.68 58 -80 58 C-80.99 53.71 -81.98 49.42 -83 45 C-85.00753698 46.09040327 -87.00588751 47.19773572 -89 48.3125 C-90.11375 48.92738281 -91.2275 49.54226562 -92.375 50.17578125 C-93.24125 50.77777344 -94.1075 51.37976563 -95 52 C-95 52.99 -95 53.98 -95 55 C-97.97 55.66 -100.94 56.32 -104 57 C-104 56.34 -104 55.68 -104 55 C-110.28824564 56.55149238 -116.18444655 58.31511628 -122.02734375 61.1328125 C-126.35349874 63.03460737 -130.28087466 63.33116669 -135 63 C-138.46342452 61.58314451 -139.72530618 60.44764918 -141.6875 57.25 C-144.07617909 51.3351756 -145.26157211 46.40851675 -145 40 C-139.375 37 -139.375 37 -136 37 C-135.731875 36.21625 -135.46375 35.4325 -135.1875 34.625 C-134 32 -134 32 -131 30 C-125.75876083 29.7207155 -121.22935501 30.64231899 -116.6875 33.25 C-114.81168001 34.35317101 -114.81168001 34.35317101 -113 35 C-110.33790071 33.95335182 -110.33790071 33.95335182 -108 32 C-106.9275 31.7525 -105.855 31.505 -104.75 31.25 C-100.32143152 29.77381051 -97.55466384 27.53460368 -94.015625 24.55859375 C-92 23 -92 23 -89 22 C-88.69835937 21.34773438 -88.39671875 20.69546875 -88.0859375 20.0234375 C-87 18 -87 18 -84.9765625 17.1015625 C-84.20054688 16.94429687 -83.42453125 16.78703125 -82.625 16.625 C-81.85414062 16.45226562 -81.08328125 16.27953125 -80.2890625 16.1015625 C-77.61133701 15.98275557 -76.26377509 16.62519595 -74 18 C-74.04640625 18.65226562 -74.0928125 19.30453125 -74.140625 19.9765625 C-74.3217079 24.3613556 -74.3065292 27.33789693 -72.4375 31.375 C-69.48656349 34.55293162 -66.87096001 36.06451999 -63 38 C-62.34 38.33 -61.68 38.66 -61 39 C-52.49391647 39.64137342 -44.30370964 39.98428834 -37 35 C-33.4183757 31.8775583 -32.91262764 29.58978765 -32.4375 25.0625 C-31.87468952 21.57204235 -31.53443137 20.39351166 -28.64453125 18.265625 C-26.70163275 17.29024276 -24.74259096 16.34642478 -22.76953125 15.43359375 C-17.45167028 12.6809069 -14.51267683 8.3032534 -12 3 C-10.35 3 -8.7 3 -7 3 C-6.67 4.32 -6.34 5.64 -6 7 C-4.33388095 7.042721 -2.66617115 7.04063832 -1 7 C0.35618499 5.87465895 0.35618499 5.87465895 0.0625 2.9375 C0.0315625 1.4834375 0.0315625 1.4834375 0 0 Z " fill="#3AB575" transform="translate(148,143)"/>
<path d="M0 0 C0.63164062 0.45117188 1.26328125 0.90234375 1.9140625 1.3671875 C9.95400311 7.63621608 15.97476051 17.00720153 18 27 C18.51129763 32.6595809 18.53854724 38.345254 18 44 C17.01 44.99 17.01 44.99 16 46 C15.566875 45.525625 15.13375 45.05125 14.6875 44.5625 C12.97690387 42.76313043 12.97690387 42.76313043 10 42 C9.814375 43.8253125 9.814375 43.8253125 9.625 45.6875 C9.21108694 49.06479059 8.45426549 51.89756695 7 55 C4.66705225 55.04241723 2.33297433 55.04092937 0 55 C-1 54 -1 54 -1.125 50.1875 C-1.09401243 47.31082025 -0.91742334 44.75227001 0 42 C-0.99 42 -1.98 42 -3 42 C-3 43.32 -3 44.64 -3 46 C-9.11485027 46.09706112 -14.93303301 45.77040851 -21 45 C-21 44.01 -21 43.02 -21 42 C-21.66 41.95875 -22.32 41.9175 -23 41.875 C-29.79772779 39.89232939 -34.92199068 34.60726281 -39 29 C-39 28.34 -39 27.68 -39 27 C-39.64324219 27.27714844 -40.28648438 27.55429688 -40.94921875 27.83984375 C-48.32465955 30.79633286 -55.08243447 31.74824911 -63 32 C-62.97679688 32.91523437 -62.95359375 33.83046875 -62.9296875 34.7734375 C-62.90261719 36.55621094 -62.90261719 36.55621094 -62.875 38.375 C-62.85179688 39.55835938 -62.82859375 40.74171875 -62.8046875 41.9609375 C-63 45 -63 45 -65 47 C-68.5625 46.75 -68.5625 46.75 -72 46 C-73.38226016 43.23547967 -73.09525387 40.9538637 -73.0625 37.875 C-73.05347656 36.77929688 -73.04445313 35.68359375 -73.03515625 34.5546875 C-73.02355469 33.71164063 -73.01195312 32.86859375 -73 32 C-76.96 33.98 -76.96 33.98 -81 36 C-81.73825441 25.39784644 -79.64872489 16.31185218 -72.81640625 7.97265625 C-53.96062354 -12.50512928 -23.0548142 -17.05542017 0 0 Z " fill="#404347" transform="translate(134,74)"/>
<path d="M0 0 C0.33 0 0.66 0 1 0 C0.97905273 0.96824707 0.95810547 1.93649414 0.93652344 2.93408203 C0.86381488 6.54574645 0.81808944 10.15734691 0.78027344 13.76953125 C0.76022778 15.32921244 0.73298343 16.88881913 0.69824219 18.44824219 C0.64940874 20.69745314 0.62696185 22.9456659 0.609375 25.1953125 C0.58872986 25.8861795 0.56808472 26.57704651 0.54681396 27.28884888 C0.54450858 32.32680677 1.81391738 35.14342622 5 39 C6.0725 39.66 7.145 40.32 8.25 41 C9.1575 41.66 10.065 42.32 11 43 C11 44.98 11 46.96 11 49 C1.1 49 -8.8 49 -19 49 C-19.33 37.12 -19.66 25.24 -20 13 C-24.62 13 -29.24 13 -34 13 C-34.33 24.88 -34.66 36.76 -35 49 C-44.9 49 -54.8 49 -65 49 C-65 43 -65 43 -63.3203125 41.2421875 C-62.59585938 40.79101562 -61.87140625 40.33984375 -61.125 39.875 C-57.9281306 37.84687856 -56.36211119 36.55985967 -55 33 C-54.72455865 29.80305813 -54.72455865 29.80305813 -54.8046875 26.265625 C-54.80968262 25.09805664 -54.81467773 23.93048828 -54.81982422 22.72753906 C-54.83803223 21.24995117 -54.85624023 19.77236328 -54.875 18.25 C-54.91625 13.5475 -54.9575 8.845 -55 4 C-36.85 4 -18.7 4 0 4 C0 2.68 0 1.36 0 0 Z " fill="#6366BD" transform="translate(123,207)"/>
<path d="M0 0 C3 3.23076923 3 3.23076923 3 6 C3.7425 6.12375 4.485 6.2475 5.25 6.375 C7.80141485 6.95486701 9.7267573 7.73708739 12 9 C12.40774783 16.3394609 11.68380275 23.66557841 6.9375 29.5625 C2.81314043 32.62250871 -1.02752305 32.70284681 -6 32 C-11.45114092 30.28006139 -16.713905 28.16663292 -22 26 C-23.99977742 25.20777125 -25.9997364 24.4160004 -28 23.625 C-29.33409714 23.08521728 -30.66778619 22.5444143 -32 22 C-28.92591136 13.5843019 -24.09700666 6.62724587 -16.125 2.3125 C-10.99201736 0.06803991 -5.55313305 -1.62273717 0 0 Z " fill="#B07153" transform="translate(175,182)"/>
<path d="M0 0 C5.11543592 1.1515267 9.78548846 3.48873259 13.328125 7.3984375 C14.9938642 10.06928279 15.88760913 12.67128977 16.83203125 15.671875 C17.16460937 16.71472656 17.4971875 17.75757813 17.83984375 18.83203125 C18.12601563 19.74855469 18.4121875 20.66507813 18.70703125 21.609375 C19.20203125 23.094375 19.20203125 23.094375 19.70703125 24.609375 C19.01738281 24.77953125 18.32773437 24.9496875 17.6171875 25.125 C12.03777349 26.56386123 6.87275764 28.23786583 1.6796875 30.7421875 C-2.64646749 32.64398237 -6.57384341 32.94054169 -11.29296875 32.609375 C-14.75639327 31.19251951 -16.01827493 30.05702418 -17.98046875 26.859375 C-20.36914784 20.9445506 -21.55454086 16.01789175 -21.29296875 9.609375 C-15.66796875 6.609375 -15.66796875 6.609375 -12.29296875 6.609375 C-12.02484375 5.825625 -11.75671875 5.041875 -11.48046875 4.234375 C-8.96781957 -1.31990214 -5.24229004 -0.6447326 0 0 Z " fill="#B17153" transform="translate(24.29296875,173.390625)"/>
<path d="M0 0 C2.375 0.20703125 2.375 0.20703125 5 1 C6.1875 3.07421875 6.1875 3.07421875 7 5.6875 C9.6421034 13.07696847 13.90765552 18.27245387 21 22 C33.0997578 26.60501638 44.26325653 27.14925871 57 27 C56.5073899 31.20891862 55.48670851 32.98010284 52.25 35.6875 C51.23679687 36.55955078 51.23679687 36.55955078 50.203125 37.44921875 C44.20000207 41.67482124 38.11869695 41.73130957 31 41 C24.87461159 39.297937 20.32035523 35.37966962 17 30 C16.125 26.5625 16.125 26.5625 16 24 C11.07116994 22.79784633 7.73676739 23.17816639 3 25 C2.34 25.99 1.68 26.98 1 28 C0.34 27.67 -0.32 27.34 -1 27 C-0.67 26.01 -0.34 25.02 0 24 C-0.62648438 24.01160156 -1.25296875 24.02320313 -1.8984375 24.03515625 C-2.71570312 24.04417969 -3.53296875 24.05320313 -4.375 24.0625 C-5.18710937 24.07410156 -5.99921875 24.08570313 -6.8359375 24.09765625 C-9 24 -9 24 -11 23 C-11.3125 20.375 -11.3125 20.375 -11 17 C-9.8800354 15.58357418 -8.74542293 14.17401219 -7.51171875 12.85546875 C-4.37218736 9.00203875 -2.2775533 4.39857373 0 0 Z " fill="#9A6249" transform="translate(58,137)"/>
<path d="M0 0 C0.87914063 0.01200439 1.75828125 0.02400879 2.6640625 0.03637695 C15.65577212 0.31864875 29.02015909 2.58614562 38.7890625 11.90234375 C43.125 16.47916667 43.125 16.47916667 43.125 21.3125 C39.68394291 20.28018287 36.54902318 19.05705111 33.38671875 17.375 C21.68303316 11.48699338 9.00552116 10.9537602 -3.875 10.9375 C-5.10307373 10.93588867 -6.33114746 10.93427734 -7.59643555 10.93261719 C-14.57536241 11.01802115 -21.09809837 11.61632272 -27.875 13.3125 C-27.11774908 9.75351215 -26.32886826 8.44781865 -23.375 6.25 C-22.7459375 5.76402344 -22.116875 5.27804688 -21.46875 4.77734375 C-14.52446607 0.85549665 -7.88648688 -0.16810509 0 0 Z " fill="#6F9EB9" transform="translate(96.875,80.6875)"/>
<path d="M0 0 C19.47 0 38.94 0 59 0 C58.34 3.3 57.68 6.6 57 10 C38.52 10 20.04 10 1 10 C0.67 6.7 0.34 3.4 0 0 Z " fill="#3B3D40" transform="translate(66,201)"/>
<path d="M0 0 C3.06627706 -0.21665549 6.11727238 -0.37459318 9.1875 -0.5 C10.05181641 -0.56703125 10.91613281 -0.6340625 11.80664062 -0.703125 C14.42376535 -0.78334338 16.4868787 -0.75115122 19 0 C20.76661711 1.90810696 21.81902516 3.71385607 22.92773438 6.06005859 C24.00635885 8.37459019 24.00635885 8.37459019 27.3125 10.125 C28.6428125 11.053125 28.6428125 11.053125 30 12 C30 13.98 30 15.96 30 18 C20.1 18 10.2 18 0 18 C0 12.06 0 6.12 0 0 Z " fill="#B6C8D8" transform="translate(104,238)"/>
<path d="M0 0 C6.27 0 12.54 0 19 0 C19 5.94 19 11.88 19 18 C9.1 18 -0.8 18 -11 18 C-11 12 -11 12 -9.35546875 10.3125 C-8.64003906 9.879375 -7.92460938 9.44625 -7.1875 9 C-2.77665818 6.3004684 -2.65094933 5.30189867 0 0 Z " fill="#B6C8D8" transform="translate(69,238)"/>
<path d="M0 0 C2.375 0.20703125 2.375 0.20703125 5 1 C6.1875 3.07421875 6.1875 3.07421875 7 5.6875 C8.79626334 10.78421469 10.92114873 15.46057437 16 18 C16 19.98 16 21.96 16 24 C15.154375 23.79375 14.30875 23.5875 13.4375 23.375 C9.39639137 22.93415179 6.77828718 23.54681262 3 25 C2.34 25.99 1.68 26.98 1 28 C0.34 27.67 -0.32 27.34 -1 27 C-0.67 26.01 -0.34 25.02 0 24 C-0.62648438 24.01160156 -1.25296875 24.02320313 -1.8984375 24.03515625 C-2.71570312 24.04417969 -3.53296875 24.05320313 -4.375 24.0625 C-5.18710937 24.07410156 -5.99921875 24.08570313 -6.8359375 24.09765625 C-9 24 -9 24 -11 23 C-11.3125 20.375 -11.3125 20.375 -11 17 C-9.8800354 15.58357418 -8.74542293 14.17401219 -7.51171875 12.85546875 C-4.37218736 9.00203875 -2.2775533 4.39857373 0 0 Z " fill="#393B3D" transform="translate(58,137)"/>
<path d="M0 0 C0.66 0 1.32 0 2 0 C3.40234375 1.86328125 3.40234375 1.86328125 4.9375 4.3125 C7.05623514 7.68415055 7.05623514 7.68415055 9.703125 10.62890625 C10.13109375 11.08136719 10.5590625 11.53382813 11 12 C10.8125 14.625 10.8125 14.625 10 17 C7.20518141 18.3974093 4.86675981 18.13211589 1.75 18.125 C0.63109375 18.12757813 -0.4878125 18.13015625 -1.640625 18.1328125 C-4.84607544 18.00608539 -7.85244689 17.6008965 -11 17 C-11.66 17.99 -12.32 18.98 -13 20 C-15.64 18.68 -18.28 17.36 -21 16 C-20.60167969 15.48050781 -20.20335938 14.96101562 -19.79296875 14.42578125 C-19.26316406 13.72839844 -18.73335937 13.03101563 -18.1875 12.3125 C-17.63578125 11.58675781 -17.0840625 10.86101562 -16.515625 10.11328125 C-14.87166215 7.92630286 -14.87166215 7.92630286 -13.4375 5 C-12.7259375 4.01 -12.7259375 4.01 -12 3 C-9.3125 2.6875 -9.3125 2.6875 -7 3 C-6.67 4.32 -6.34 5.64 -6 7 C-4.33388095 7.042721 -2.66617115 7.04063832 -1 7 C0.35618499 5.87465895 0.35618499 5.87465895 0.0625 2.9375 C0.041875 1.968125 0.02125 0.99875 0 0 Z " fill="#3B3B3D" transform="translate(148,143)"/>
<path d="M0 0 C0.33 0 0.66 0 1 0 C1.42064893 6.09940955 1.08964656 9.13663653 -3 14 C-9.59721901 20.24999695 -16.63060189 20.44942193 -25.359375 20.3125 C-31.76699471 19.76248972 -35.74775822 17.69025253 -39.9375 12.875 C-43.03442268 8.55807748 -43.0983194 6.30924783 -43 1 C-41.01739897 2.8782536 -39.45624435 4.73018615 -37.8125 6.9375 C-34.03497327 11.41912195 -29.9184063 13.61506889 -24.09765625 14.3828125 C-17.58044749 14.62936516 -12.28606661 13.99827776 -7 10 C-3.97528167 7.10679116 -1.63688438 3.86899946 0 0 Z " fill="#D9DAD9" transform="translate(116,163)"/>
<path d="M0 0 C2.87579032 0.31953226 4.26676047 1.19689463 6.625 2.9375 C9.83025772 7.07059548 10.84165591 10.79047931 11 16 C10.13391302 20.14883603 8.35061897 23.47407154 6 27 C5.34 27 4.68 27 4 27 C3.67 25.35 3.34 23.7 3 22 C1.02 21.67 -0.96 21.34 -3 21 C-3.33 21.99 -3.66 22.98 -4 24 C-4.66 24 -5.32 24 -6 24 C-5.44786825 18.06458369 -3.74912334 12.65626456 -1.9375 6.98828125 C-1.20887963 4.66580383 -0.55322582 2.36849804 0 0 Z " fill="#B37556" transform="translate(144,116)"/>
<path d="M0 0 C0.04898438 0.99902344 0.09796875 1.99804688 0.1484375 3.02734375 C0.22320312 4.31769531 0.29796875 5.60804687 0.375 6.9375 C0.44460937 8.22527344 0.51421875 9.51304688 0.5859375 10.83984375 C0.72257812 11.88269531 0.85921875 12.92554687 1 14 C1.66 14.33 2.32 14.66 3 15 C2.67 18.63 2.34 22.26 2 26 C1.34 25.67 0.68 25.34 0 25 C0 24.01 0 23.02 0 22 C-2.64 21.67 -5.28 21.34 -8 21 C-8.33 22.98 -8.66 24.96 -9 27 C-12.7055771 22.64344314 -13.14695699 18.61029934 -13 13 C-11.94974962 8.40840951 -9.63865161 4.97707859 -6 2 C-3.7859478 0.69761635 -2.56707742 0 0 0 Z " fill="#B67657" transform="translate(61,106)"/>
<path d="M0 0 C0.74472061 -0.0033284 1.48944122 -0.0066568 2.25672913 -0.01008606 C3.83284894 -0.01515151 5.40897948 -0.0174945 6.98510742 -0.01733398 C9.39715235 -0.01951947 11.80873922 -0.03767593 14.22070312 -0.05664062 C15.75130052 -0.05957482 17.28190008 -0.06155944 18.8125 -0.0625 C19.53445053 -0.06968552 20.25640106 -0.07687103 21.00022888 -0.08427429 C24.71509087 -0.06731753 26.29753881 0.05122379 29.47265625 2.16796875 C29.47265625 2.82796875 29.47265625 3.48796875 29.47265625 4.16796875 C24.74634801 6.53112287 20.15425285 6.6860149 14.97265625 6.91796875 C13.64548584 6.98153564 13.64548584 6.98153564 12.29150391 7.04638672 C4.85925683 7.31795219 -3.72785661 7.56771232 -10.52734375 4.16796875 C-10.19734375 3.17796875 -9.86734375 2.18796875 -9.52734375 1.16796875 C-6.49077516 -0.35031554 -3.33129107 0.00512054 0 0 Z " fill="#25A05F" transform="translate(85.52734375,182.83203125)"/>
<path d="M0 0 C2.9375 2.0625 2.9375 2.0625 5 5 C5.5625 8.5625 5.5625 8.5625 5 12 C3.13291495 14.36497439 1.67938569 15.66030715 -1 17 C-4.46500939 17.37663145 -6.36348003 17.38526209 -9.375 15.5625 C-11.7776838 11.77365246 -11.77693727 8.36526609 -11 4 C-8.21528417 -0.56693397 -5.09718974 -0.80481943 0 0 Z " fill="#F0EDEB" transform="translate(121,123)"/>
<path d="M0 0 C6.27 0 12.54 0 19 0 C19 3.3 19 6.6 19 10 C12.73 10 6.46 10 0 10 C0 6.7 0 3.4 0 0 Z " fill="#B97656" transform="translate(104,228)"/>
<path d="M0 0 C6.27 0 12.54 0 19 0 C19 3.3 19 6.6 19 10 C12.73 10 6.46 10 0 10 C0 6.7 0 3.4 0 0 Z " fill="#B97656" transform="translate(69,228)"/>
<path d="M0 0 C1.81455688 0.07069702 1.81455688 0.07069702 3.66577148 0.14282227 C5.62353516 0.21533203 5.62353516 0.21533203 7.62084961 0.28930664 C9.00952598 0.34583683 10.39819781 0.40247892 11.78686523 0.45922852 C13.17942544 0.51243399 14.5720035 0.56517448 15.96459961 0.61743164 C19.38472504 0.74760943 22.80459448 0.88259032 26.22436523 1.02172852 C26.22436523 3.00172852 26.22436523 4.98172852 26.22436523 7.02172852 C16.32436523 7.02172852 6.42436523 7.02172852 -3.77563477 7.02172852 C-3.77563477 0.02955682 -3.77563477 0.02955682 0 0 Z " fill="#D5D5D5" transform="translate(61.775634765625,248.978271484375)"/>
<path d="M0 0 C9.9 0 19.8 0 30 0 C30 1.98 30 3.96 30 6 C20.1 6 10.2 6 0 6 C0 4.02 0 2.04 0 0 Z " fill="#D5D6D6" transform="translate(104,250)"/>
<path d="M0 0 C1.32 0 2.64 0 4 0 C5.50626117 3.12202006 7.00393243 6.24808399 8.5 9.375 C8.92925781 10.26445312 9.35851563 11.15390625 9.80078125 12.0703125 C10.20683594 12.92109375 10.61289062 13.771875 11.03125 14.6484375 C11.40830078 15.43395996 11.78535156 16.21948242 12.17382812 17.02880859 C13 19 13 19 13 21 C10.03 21.66 7.06 22.32 4 23 C2.96378723 20.27581165 1.94588063 17.54697784 0.9375 14.8125 C0.64294922 14.04357422 0.34839844 13.27464844 0.04492188 12.48242188 C-2.58493578 5.27351795 -2.58493578 5.27351795 -1 1 C-0.67 0.67 -0.34 0.34 0 0 Z " fill="#24A260" transform="translate(40,177)"/>
<path d="M0 0 C2.475 0.99 2.475 0.99 5 2 C5 6.12463057 4.82484722 6.7468062 2.59375 9.890625 C2.09746094 10.59960938 1.60117188 11.30859375 1.08984375 12.0390625 C0.56519531 12.76867187 0.04054687 13.49828125 -0.5 14.25 C-1.02464844 14.99507812 -1.54929688 15.74015625 -2.08984375 16.5078125 C-3.38501647 18.34460291 -4.68851973 20.17483549 -6 22 C-8.4375 21.1875 -8.4375 21.1875 -11 20 C-12.13003664 16.60989008 -11.7437408 15.30400812 -10.30078125 12.1171875 C-7.51598539 7.58457682 -3.66935181 3.82320304 0 0 Z " fill="#25A260" transform="translate(148,183)"/>
<path d="M0 0 C2.31 0.33 4.62 0.66 7 1 C7.33 1.99 7.66 2.98 8 4 C5.58021558 7.72274527 3.14070293 10.34371883 -1 12 C-5.88579974 12.30762443 -9.72510506 11.62811341 -13.5625 8.5 C-16 6 -16 6 -16 5 C-10.84828377 4.90961901 -6.08086796 5.15318867 -1 6 C-0.67 4.02 -0.34 2.04 0 0 Z " fill="#AA6443" transform="translate(104,145)"/>
<path d="M0 0 C1.65 0.33 3.3 0.66 5 1 C5.8125 2.6875 5.8125 2.6875 6 5 C3.9375 7.3125 3.9375 7.3125 1 10 C-0.58703037 11.85798678 -2.1321948 13.74406164 -3.66796875 15.64453125 C-4.10753906 16.09183594 -4.54710937 16.53914063 -5 17 C-5.66 17 -6.32 17 -7 17 C-7 18.32 -7 19.64 -7 21 C-4.36 21.33 -1.72 21.66 1 22 C0.67 22.66 0.34 23.32 0 24 C-1.45823212 24.0270043 -2.91660675 24.04639787 -4.375 24.0625 C-5.18710937 24.07410156 -5.99921875 24.08570313 -6.8359375 24.09765625 C-9 24 -9 24 -11 23 C-11.3125 20.375 -11.3125 20.375 -11 17 C-9.8800354 15.58357418 -8.74542293 14.17401219 -7.51171875 12.85546875 C-4.37218736 9.00203875 -2.2775533 4.39857373 0 0 Z " fill="#494D52" transform="translate(58,137)"/>
<path d="M0 0 C2.4375 0.375 2.4375 0.375 4.4375 2.375 C4.77305022 5.99894236 4.85828956 8.51127406 3.25 11.8125 C1.4375 13.375 1.4375 13.375 -1.125 13.8125 C-1.929375 13.668125 -2.73375 13.52375 -3.5625 13.375 C-5.88829101 9.88631349 -5.98115457 8.47781481 -5.5625 4.375 C-4.03959587 1.32919175 -3.40573808 0.4984007 0 0 Z " fill="#45474A" transform="translate(116.5625,124.625)"/>
<path d="M0 0 C0.763125 0.0825 1.52625 0.165 2.3125 0.25 C3.47593227 2.57686453 3.51145988 4.09721413 3.5625 6.6875 C3.60117188 7.86119141 3.60117188 7.86119141 3.640625 9.05859375 C3.3125 11.25 3.3125 11.25 1.9609375 13.046875 C0.3125 14.25 0.3125 14.25 -2.3125 14.0625 C-4.6875 13.25 -4.6875 13.25 -5.6875 11.25 C-5.95419049 7.64967833 -6.09685434 5.09025365 -4.5 1.8125 C-2.6875 0.25 -2.6875 0.25 0 0 Z " fill="#434548" transform="translate(86.6875,120.75)"/>
<path d="M0 0 C1.98 0 3.96 0 6 0 C8.47120419 7.87696335 8.47120419 7.87696335 8 12 C6 14 6 14 3.375 14.125 C2.59125 14.08375 1.8075 14.0425 1 14 C-0.79217969 8.83430559 -1.12029814 5.48946087 0 0 Z " fill="#E0985C" transform="translate(141,137)"/>
<path d="M0 0 C0.99 0.33 1.98 0.66 3 1 C3 1.66 3 2.32 3 3 C6.41718994 4.05397666 9.50037159 4.0706246 13.0625 4 C16.46049499 3.93279614 18.76097972 3.92032657 22 5 C22.33 4.34 22.66 3.68 23 3 C25.01920337 4.30406884 27.01924973 5.63823419 29 7 C29 7.33 29 7.66 29 8 C19.43 8 9.86 8 0 8 C0 5.36 0 2.72 0 0 Z " fill="#AABBC9" transform="translate(104,242)"/>
<path d="M0 0 C1.99954746 -0.04254356 4.00041636 -0.04080783 6 0 C7 1 7 1 7.25 3.625 C6.94640885 7.72348055 5.76990092 10.31270642 4 14 C1.625 14.125 1.625 14.125 -1 14 C-3 12 -3 12 -3.3125 9.8125 C-2.8993837 6.09445328 -1.59139617 3.38171687 0 0 Z " fill="#DC965C" transform="translate(53,127)"/>
<path d="M0 0 C0 2.64 0 5.28 0 8 C-8.91 8 -17.82 8 -27 8 C-27 7.34 -27 6.68 -27 6 C-24.5 4.375 -24.5 4.375 -22 3 C-22 3.66 -22 4.32 -22 5 C-21.44183594 4.835 -20.88367188 4.67 -20.30859375 4.5 C-17.80555832 3.95788742 -15.61968645 3.93695688 -13.0625 4 C-9.55958881 4.04139334 -6.40940767 3.90917538 -3 3 C-3 2.34 -3 1.68 -3 1 C-1 0 -1 0 0 0 Z " fill="#AABBC9" transform="translate(88,242)"/>
<path d="M0 0 C6.11090483 -0.09945415 11.97403427 -0.0712828 18 1 C17.67 2.98 17.34 4.96 17 7 C11.72 6.67 6.44 6.34 1 6 C0.67 4.02 0.34 2.04 0 0 Z " fill="#FCF9F8" transform="translate(86,144)"/>
<path d="M0 0 C3.7109611 0.31991044 4.99743948 0.7900419 7.625 3.3125 C7.25 5.75 7.25 5.75 6.625 8.3125 C3.60631566 9.82184217 0.95202771 9.48760672 -2.375 9.3125 C-3.365 8.6525 -4.355 7.9925 -5.375 7.3125 C-5.6875 4.8125 -5.6875 4.8125 -5.375 2.3125 C-3.375 0.3125 -3.375 0.3125 0 0 Z " fill="#975536" transform="translate(99.375,130.6875)"/>
<path d="M0 0 C3.63774014 4.80381027 5.54266429 7.7593607 5 14 C3 16 3 16 1 16.4375 C-1.38640738 16.87458708 -1.38640738 16.87458708 -3 20 C-3.66 20 -4.32 20 -5 20 C-4.35346673 13.04976736 -2.13972752 6.61822697 0 0 Z " fill="#A55F3F" transform="translate(143,120)"/>
<path d="M0 0 C0.66 0 1.32 0 2 0 C3.40234375 1.86328125 3.40234375 1.86328125 4.9375 4.3125 C7.05623514 7.68415055 7.05623514 7.68415055 9.703125 10.62890625 C10.13109375 11.08136719 10.5590625 11.53382813 11 12 C10.8125 14.625 10.8125 14.625 10 17 C7.20518141 18.3974093 4.86675981 18.13211589 1.75 18.125 C0.63109375 18.12757813 -0.4878125 18.13015625 -1.640625 18.1328125 C-4.84607544 18.00608539 -7.85244689 17.6008965 -11 17 C-11 16.67 -11 16.34 -11 16 C-5.47032059 15.28966569 -0.50016964 14.69732824 5 16 C5 11.39202854 4.05275092 10.83958693 1.11328125 7.59375 C-0.61675046 5.11707303 -0.34583631 2.90502503 0 0 Z " fill="#444749" transform="translate(148,143)"/>
<path d="M0 0 C0.33 0.66 0.66 1.32 1 2 C0.030625 2.28875 -0.93875 2.5775 -1.9375 2.875 C-5.10664203 3.64214682 -5.10664203 3.64214682 -6 6 C-6.3052622 10.65275976 -6.3052622 10.65275976 -5 15 C-2.98330173 16.13350534 -2.98330173 16.13350534 -1 17 C-4.25 17.3125 -4.25 17.3125 -8 17 C-11.18533648 14.30471529 -11.90100875 12.61594555 -12.5625 8.5 C-12 5 -12 5 -9.9375 2.0625 C-6.35134537 -0.45543836 -4.29107165 -0.4206933 0 0 Z " fill="#F4F2F0" transform="translate(88,119)"/>
<path d="M0 0 C0.33 0 0.66 0 1 0 C1.12375 1.134375 1.2475 2.26875 1.375 3.4375 C1.684375 5.2009375 1.684375 5.2009375 2 7 C2.66 7.33 3.32 7.66 4 8 C3.67 11.63 3.34 15.26 3 19 C2.34 18.67 1.68 18.34 1 18 C1 17.01 1 16.02 1 15 C0.34 15 -0.32 15 -1 15 C-1 14.34 -1 13.68 -1 13 C-2.32 12.67 -3.64 12.34 -5 12 C-5.35133708 9.04876854 -5.52850886 6.8502099 -3.921875 4.265625 C-2.6895356 2.77831883 -1.34923232 1.38214043 0 0 Z " fill="#A6603F" transform="translate(60,113)"/>
<path d="M0 0 C6.35450323 1.24702151 12.68327435 2.57364259 19 4 C18.67 5.32 18.34 6.64 18 8 C11.4491015 7.54240047 5.3246158 6.7899856 -1 5 C-0.67 3.35 -0.34 1.7 0 0 Z " fill="#464242" transform="translate(75,109)"/>
<path d="M0 0 C1.49574876 2.99149753 0.64805018 5.29881021 0.125 8.5625 C-0.05804688 9.73941406 -0.24109375 10.91632813 -0.4296875 12.12890625 C-1 15 -1 15 -2 16 C-3.99958364 16.04080783 -6.00045254 16.04254356 -8 16 C-8.50731767 10.67316448 -7.26718004 8.17473006 -4 4 C-2.70317626 2.63113049 -1.38176866 1.2830709 0 0 Z " fill="#2F9E64" transform="translate(124,185)"/>
<path d="M0 0 C0.99 2.97 1.98 5.94 3 9 C0.03 9.66 -2.94 10.32 -6 11 C-6.99 8.03 -7.98 5.06 -9 2 C-2.25 0 -2.25 0 0 0 Z " fill="#239056" transform="translate(50,189)"/>
<path d="M0 0 C1.13199353 0.9080162 2.25532363 1.82683826 3.375 2.75 C4.00148438 3.26046875 4.62796875 3.7709375 5.2734375 4.296875 C8.15134421 7.13571511 8.96986503 9.21649085 9.125 13.25 C9.08375 14.1575 9.0425 15.065 9 16 C7.02 16 5.04 16 3 16 C2.49595192 13.89679937 1.99689492 11.79240209 1.5 9.6875 C1.08234375 7.92986328 1.08234375 7.92986328 0.65625 6.13671875 C0 3 0 3 0 0 Z " fill="#2F9F63" transform="translate(65,185)"/>
<path d="M0 0 C3.73487777 0.4979837 5.81237635 0.87491756 9 3 C7.35 5.31 5.7 7.62 4 10 C1.5625 9.1875 1.5625 9.1875 -1 8 C-2.2077558 4.37673261 -1.54311128 3.35853631 0 0 Z " fill="#289159" transform="translate(138,195)"/>
<path d="M0 0 C3.1875 0.3125 3.1875 0.3125 5.5625 2.3125 C6.09875 2.9725 6.635 3.6325 7.1875 4.3125 C3.54928302 6.64095886 0.42721058 6.54803948 -3.8125 6.3125 C-4.4725 5.9825 -5.1325 5.6525 -5.8125 5.3125 C-3.42613636 0.38068182 -3.42613636 0.38068182 0 0 Z " fill="#5C5EAE" transform="translate(95.8125,212.6875)"/>
<path d="M0 0 C0.90105469 0.11085937 1.80210938 0.22171875 2.73046875 0.3359375 C3.76107422 0.47902344 3.76107422 0.47902344 4.8125 0.625 C4.8125 1.615 4.8125 2.605 4.8125 3.625 C2.85450486 3.96031415 0.89609226 4.29319143 -1.0625 4.625 C-2.15304688 4.810625 -3.24359375 4.99625 -4.3671875 5.1875 C-7.1875 5.625 -7.1875 5.625 -9.1875 5.625 C-8.875 3.75 -8.875 3.75 -8.1875 1.625 C-4.73535147 -0.67643236 -3.95270676 -0.51333854 0 0 Z " fill="#AB6B4D" transform="translate(22.1875,173.375)"/>
<path d="M0 0 C0.66 0.33 1.32 0.66 2 1 C1.56429687 1.49628906 1.12859375 1.99257812 0.6796875 2.50390625 C-3.24273979 6.97819019 -7.13544286 11.47564042 -11 16 C-11.33 15.34 -11.66 14.68 -12 14 C-8.34161026 8.88863277 -4.55388068 4.33702922 0 0 Z " fill="#4E575C" transform="translate(69,74)"/>
<path d="M0 0 C0.66 0 1.32 0 2 0 C3.40234375 1.86328125 3.40234375 1.86328125 4.9375 4.3125 C7.0563479 7.6859777 7.0563479 7.6859777 9.7109375 10.625 C10.13632813 11.07875 10.56171875 11.5325 11 12 C10.6875 14.6875 10.6875 14.6875 10 17 C9.34 16.67 8.68 16.34 8 16 C7.731875 15.0925 7.46375 14.185 7.1875 13.25 C6.2004988 9.84047906 6.2004988 9.84047906 3.4375 7.4375 C0.83539413 4.83539413 0.30782295 3.59126778 0 0 Z " fill="#4D5357" transform="translate(148,143)"/>
<path d="M0 0 C4.97959184 4.97959184 4.97959184 4.97959184 5.0625 9.125 C5.041875 10.07375 5.02125 11.0225 5 12 C3.68 12 2.36 12 1 12 C0.67 8.04 0.34 4.08 0 0 Z " fill="#23A25F" transform="translate(69,189)"/>
<path d="M0 0 C1.03159626 3.09478879 0.97482862 4.52631393 0.5625 7.6875 C0.46066406 8.49574219 0.35882813 9.30398437 0.25390625 10.13671875 C0.17011719 10.75160156 0.08632812 11.36648437 0 12 C-1.32 12 -2.64 12 -4 12 C-4.50423019 6.70558305 -3.18923033 4.18586481 0 0 Z " fill="#23A360" transform="translate(120,189)"/>
<path d="M0 0 C0.33 0.99 0.66 1.98 1 3 C-0.43457328 3.9834496 -1.87277406 4.96160921 -3.3125 5.9375 C-4.11300781 6.48277344 -4.91351563 7.02804688 -5.73828125 7.58984375 C-8 9 -8 9 -11 10 C-11.33 9.34 -11.66 8.68 -12 8 C-8.04 5.36 -4.08 2.72 0 0 Z " fill="#3DA56F" transform="translate(63,185)"/>
<path d="M0 0 C2.01337297 0.02257988 4.02291403 0.20753943 6.02734375 0.3984375 C6.68734375 1.3884375 7.34734375 2.3784375 8.02734375 3.3984375 C3.73734375 3.3984375 -0.55265625 3.3984375 -4.97265625 3.3984375 C-1.97265625 0.3984375 -1.97265625 0.3984375 0 0 Z " fill="#AB6545" transform="translate(166.97265625,182.6015625)"/>
<path d="M0 0 C4.72463088 0.46319911 8.17057052 1.09891706 12 4 C12 4.66 12 5.32 12 6 C7.01208429 5.52496041 3.9767259 4.0298864 0 1 C0 0.67 0 0.34 0 0 Z " fill="#3FA771" transform="translate(125,159)"/>
<path d="M0 0 C2.53926173 1.82671379 4.9050512 3.66877878 7 6 C7.4375 9.375 7.4375 9.375 7 12 C6.01 11.67 5.02 11.34 4 11 C4.33 9.68 4.66 8.36 5 7 C4.34 6.67 3.68 6.34 3 6 C0 2.42307692 0 2.42307692 0 0 Z " fill="#3B9D6A" transform="translate(130,190)"/>
<path d="M0 0 C0.66 1.32 1.32 2.64 2 4 C-0.97 4.66 -3.94 5.32 -7 6 C-7 5.01 -7 4.02 -7 3 C-5.5459375 2.5359375 -5.5459375 2.5359375 -4.0625 2.0625 C-1.15934208 1.30476658 -1.15934208 1.30476658 0 0 Z " fill="#349561" transform="translate(51,194)"/>
<path d="M0 0 C4.79834628 1.7136951 6.80715961 5.61431921 9 10 C5.18622154 8.50172989 3.42634455 6.23512607 1 3 C0.34 2.34 -0.32 1.68 -1 1 C-0.67 0.67 -0.34 0.34 0 0 Z " fill="#40AA73" transform="translate(125,186)"/>
<path d="M0 0 C5.75 0.875 5.75 0.875 8 2 C7.67 3.32 7.34 4.64 7 6 C4.36 4.68 1.72 3.36 -1 2 C-0.67 1.34 -0.34 0.68 0 0 Z " fill="#171717" transform="translate(128,157)"/>
<path d="M0 0 C5.75 1.75 5.75 1.75 8 4 C4.7 4 1.4 4 -2 4 C-1.34 2.68 -0.68 1.36 0 0 Z " fill="#AF7154" transform="translate(118,111)"/>
<path d="M0 0 C1.69752187 0.25245197 3.38471545 0.57645775 5.0625 0.9375 C5.98160156 1.13214844 6.90070312 1.32679688 7.84765625 1.52734375 C8.91306641 1.76130859 8.91306641 1.76130859 10 2 C9.67 2.66 9.34 3.32 9 4 C6.03 4 3.06 4 0 4 C-0.33 3.01 -0.66 2.02 -1 1 C-0.67 0.67 -0.34 0.34 0 0 Z " fill="#44484A" transform="translate(49,157)"/>
<path d="M0 0 C2.64 0 5.28 0 8 0 C6.02 2.97 6.02 2.97 4 6 C0 1.125 0 1.125 0 0 Z " fill="#474444" transform="translate(123,124)"/>
<path d="M0 0 C-1.39375072 2.78750144 -3.16244861 2.89266287 -6 4 C-6.66 4.66 -7.32 5.32 -8 6 C-8.33 4.68 -8.66 3.36 -9 2 C-5.86501708 0.14223235 -3.62528568 -0.20140476 0 0 Z " fill="#3CA56E" transform="translate(45,175)"/>
<path d="M0 0 C1.98 0 3.96 0 6 0 C6 0.99 6 1.98 6 3 C5.01 3.66 4.02 4.32 3 5 C2.01 3.35 1.02 1.7 0 0 Z " fill="#414042" transform="translate(73,118)"/>
<path d="M0 0 C0 0.66 0 1.32 0 2 C-4.455 2.495 -4.455 2.495 -9 3 C-8 1 -8 1 -6.1875 0.375 C-4 0 -4 0 0 0 Z " fill="#9E7055" transform="translate(44,196)"/>
<path d="M0 0 C3.79588866 0.54226981 5.47211993 2.20127563 8 5 C5 5 5 5 2.3125 2.5 C1.549375 1.675 0.78625 0.85 0 0 Z " fill="#3DA06E" transform="translate(148,181)"/>
</svg>
